<svg xmlns="http://www.w3.org/2000/svg" xmlns:xlink="http://www.w3.org/1999/xlink" preserveAspectRatio="xMidYMid" width="18" height="12" viewBox="0 0 18 12">
  <defs>
    <style>
      .cls-1 {
        fill: #fcd953;
        fill-rule: evenodd;
      }
    </style>
  </defs>
  <path d="M17.732,3.536 L13.732,10.464 C13.180,11.421 11.957,11.748 11.000,11.196 C10.043,10.644 9.716,9.421 10.268,8.464 L14.268,1.536 C14.820,0.579 16.043,0.251 17.000,0.804 C17.957,1.356 18.284,2.579 17.732,3.536 ZM3.732,10.464 C3.180,11.421 1.957,11.748 1.000,11.196 C0.043,10.644 -0.284,9.421 0.268,8.464 L4.268,1.536 C4.820,0.579 6.043,0.251 7.000,0.804 C7.957,1.356 8.284,2.579 7.732,3.536 L3.732,10.464 Z" class="cls-1"/>
</svg>
