<?xml version="1.0" encoding="utf-8"?>
<!-- Generator: Adobe Illustrator 17.0.0, SVG Export Plug-In . SVG Version: 6.00 Build 0)  -->
<!DOCTYPE svg PUBLIC "-//W3C//DTD SVG 1.1//EN" "http://www.w3.org/Graphics/SVG/1.1/DTD/svg11.dtd">
<svg version="1.1" id="图层_1" xmlns="http://www.w3.org/2000/svg" xmlns:xlink="http://www.w3.org/1999/xlink" x="0px" y="0px"
	 width="106px" height="34px" viewBox="0 0 106 34" enable-background="new 0 0 106 34" xml:space="preserve">
<path d="M-139.948-39.867h-5.656c-3.314,0-6-2.686-6-6v-2.688c0-3.313,2.686-5.999,6-5.999h5.656c3.314,0,6,2.686,6,5.999v2.688
	C-133.948-42.553-136.634-39.867-139.948-39.867z M-137.886-48.555c0-1.104-0.895-1.999-1.999-1.999h-5.813
	c-1.105,0-2,0.895-2,1.999v2.688c0,1.105,0.895,2,2,2h5.813c1.104,0,1.999-0.895,1.999-2V-48.555z M-136.567-59.901v0.156
	c0.206-0.074,0.424-0.122,0.655-0.122c1.085,0,1.964,0.895,1.964,2s-0.879,2-1.964,2c-0.231,0-0.449-0.048-0.655-0.122v0.088
	c-0.218,0.01-0.433,0.034-0.654,0.034c-1.979,0-3.864-0.408-5.58-1.143c-1.707,0.731-3.579,1.143-5.55,1.143
	c-0.221,0-0.437-0.023-0.655-0.033v-0.089c-0.206,0.074-0.424,0.122-0.655,0.122c-1.085,0-1.964-0.895-1.964-2s0.879-2,1.964-2
	c0.231,0,0.449,0.048,0.655,0.122v-0.154c0.217,0.013,0.434,0.032,0.655,0.032c0.401,0,0.794-0.031,1.183-0.076
	c-0.079-0.076-0.165-0.145-0.242-0.224c-0.563-0.351-0.941-0.978-0.941-1.7c0-1.105,0.879-2,1.964-2
	c0.568,0,1.076,0.249,1.434,0.642l0.061-0.062c0.622,0.683,1.338,1.274,2.116,1.773c2.223-1.432,3.882-3.688,4.555-6.353h-9.476
	c0,1.105-0.879,2-1.964,2c-1.085,0-1.964-0.896-1.964-2v-4c0-1.105,0.879-2,1.964-2c1.085,0,1.964,0.895,1.964,2l0,0h11.749
	c1.105,0,2,0.895,2,2c0,0.188-0.034,0.367-0.083,0.539c-0.296,3.683-1.927,6.976-4.393,9.387c0.395,0.046,0.795,0.074,1.203,0.074
	C-137-59.867-136.784-59.887-136.567-59.901z M-155.573-55.211c1.105,0,2,0.896,2,2c0,1.105-0.895,2-2,2h-2.594v9.381
	c0,1.084-0.879,1.963-1.963,1.963h-0.011c-1.084,0-1.963-0.879-1.963-1.963v-18.693h-2.563c-1.104,0-2-0.896-2-2
	c0-1.105,0.896-2,2-2h2.563v-7.381c0-1.084,0.879-1.963,1.963-1.963h0.011c1.084,0,1.963,0.879,1.963,1.963v7.381h2.594
	c1.105,0,2,0.895,2,2c0,1.104-0.895,2-2,2h-2.594v5.312H-155.573z M-172.787-40.209c-0.071,0.049-0.149,0.086-0.226,0.126
	c-0.037,0.018-0.07,0.043-0.107,0.059c-0.061,0.026-0.126,0.04-0.19,0.06c-0.059,0.018-0.117,0.043-0.179,0.056
	c-0.113,0.024-0.231,0.033-0.35,0.036c-0.016,0.001-0.03,0.005-0.046,0.005l0,0h-5.892c-1.085,0-1.964-0.896-1.964-2
	c0-1.105,0.879-2,1.964-2c0,0,2.305,0,3.294,0l0.634-0.688c0-6.427,0-27.312,0-27.312c0-1.105,0.879-2,1.964-2s1.964,0.895,1.964,2
	v30l0,0c0,0.685-0.339,1.289-0.855,1.649C-172.78-40.215-172.783-40.211-172.787-40.209z M-179.786-47.867h-0.012
	c-1.084,0-1.962-0.879-1.962-1.963v-12.73c0-1.084,0.878-1.963,1.962-1.963h0.012c1.084,0,1.963,0.879,1.963,1.963v12.73
	C-177.823-48.746-178.702-47.867-179.786-47.867z M-185.698-60.523h-5.188v18.693c0,1.084-0.878,1.963-1.962,1.963h-0.012
	c-1.084,0-1.963-0.879-1.963-1.963v-18.693h-5.219c-1.104,0-2-0.896-2-2c0-1.105,0.896-2,2-2h5.219v-4.011h-2.631
	c-1.085,0-1.964-0.895-1.964-2c0-1.104,0.879-2,1.964-2h5.241c0.07-0.028,0.136-0.06,0.21-0.081l3.794-1.035
	c1.048-0.286,2.125,0.347,2.406,1.414c0.281,1.067-0.341,2.164-1.389,2.45l-3.715,1.013c0.008,0.071,0.021,0.14,0.021,0.213v4.037
	h5.188c1.105,0,2,0.895,2,2C-183.698-61.419-184.593-60.523-185.698-60.523z M-207.261-41.867c0,1.105-0.881,2-1.968,2
	c-1.006,0-1.826-0.768-1.945-1.757l-0.327,0.097c-0.775-3.07-3.042-5.525-5.968-6.52c-1.588,3.845-4.89,6.773-8.939,7.784
	c-0.327,0.246-0.727,0.396-1.165,0.396c-1.087,0-1.969-0.895-1.969-2s0.882-2,1.969-2c0.123,0,0.242,0.015,0.359,0.037l-0.007-0.349
	c2.402-0.637,4.417-2.24,5.628-4.376h-5.949c-1.104,0-2-0.895-2-1.999c0-1.105,0.896-2,2-2h7.147
	c0.014-0.214,0.027-0.429,0.027-0.646h0.014v-0.667h-3.188c-3.313,0-6-2.686-6-6v-2.656c0-3.314,2.687-6,6-6h3.188v-1.344h-7.188
	c-1.104,0-2-0.895-2-2s0.896-2,2-2h18.282c1.104,0,1.999,0.895,1.999,2s-0.895,2-1.999,2h-7.188v1.344h3.188
	c3.313,0,5.999,2.686,5.999,6v2.656c0,3.314-2.686,6-5.999,6h-3.188v0.667h0.008c0,0.433-0.024,0.861-0.063,1.284
	c4.034,1.271,7.233,4.464,8.554,8.541C-207.531-43.008-207.261-42.472-207.261-41.867z M-220.354-59.179h-1.938
	c-1.104,0-2-0.896-2-2.001c0-1.104,0.896-2,2-2h1.938v-1.343h-3.25c-1.105,0-2,0.895-2,2v2.656c0,1.105,0.895,2,2,2h3.25V-59.179z
	 M-216.448-63.18h1.938c1.104,0,1.999,0.896,1.999,2c0,1.105-0.895,2.001-1.999,2.001h-1.938v1.312h3.25c1.105,0,2-0.895,2-2v-2.656
	c0-1.105-0.895-2-2-2h-3.25V-63.18z M-233.473-39.867h-0.012c-1.084,0-1.963-0.879-1.963-1.963v-26.282l-1.551,0.912
	c-0.939,0.552-2.141,0.224-2.683-0.732c-0.542-0.957-0.221-2.18,0.719-2.733l3.792-2.229c0.341-0.58,0.965-0.973,1.686-0.973h0.012
	c1.078,0,1.952,0.87,1.961,1.947c0.033,0.204,0.031,0.409,0.002,0.61v29.48C-231.51-40.746-232.389-39.867-233.473-39.867z
	 M-200.232-50.395c0.038-0.146,0.093-0.281,0.159-0.409v-6.413c0-1.084,0.879-1.962,1.963-1.962h0.012
	c1.084,0,1.962,0.878,1.962,1.962v7.387c0,0.516-0.203,0.983-0.529,1.333l-0.79,3.001c-0.28,1.066-1.357,1.7-2.405,1.414
	c-1.048-0.286-1.67-1.383-1.389-2.45L-200.232-50.395z M-187.641-59.179h0.011c1.084,0,1.963,0.878,1.963,1.962v11.387
	c0,1.084-0.879,1.963-1.963,1.963h-0.011c-1.084,0-1.963-0.879-1.963-1.963v-11.387C-189.604-58.301-188.725-59.179-187.641-59.179z
	 M-164.714-59.179c1.079,0,1.953,0.874,1.953,1.953v11.406c0,1.079-0.874,1.953-1.953,1.953c-1.078,0-1.953-0.874-1.953-1.953
	v-11.406C-166.667-58.305-165.792-59.179-164.714-59.179z"/>
<g>
	<path fill-rule="evenodd" clip-rule="evenodd" fill="#2B1003" d="M12.953,21.407v-3.04h17.872v3.04h-13.14L17.49,22.33
		c0,0.028,0,0.074,0,0.131c0.023,0.438,0.381,0.655,1.076,0.655h8.927c0.831,0,1.566,0.199,2.198,0.604
		c0.609,0.393,0.917,0.939,0.917,1.645v2h-3.114v-0.622c0-0.159-0.057-0.296-0.165-0.421c-0.222-0.245-0.507-0.37-0.854-0.37h-8.791
		c-1.076,0-1.919-0.336-2.539-1.013c-0.461-0.501-0.695-1.099-0.695-1.799c0-0.176,0.006-0.319,0.017-0.416l0.119-1.315H12.953
		L12.953,21.407z M12.953,13.123v-2.767c1.412-0.176,2.511-0.535,3.296-1.065c0.791-0.535,1.383-1.298,1.782-2.3h-5.079V3.917h5.898
		l0.347-1.298h3.228l-0.364,1.298h8.762v3.075h-4.913c0.421,0.979,0.746,1.628,0.968,1.947c0.598,0.877,1.913,1.349,3.946,1.418
		v2.767c-1.822-0.137-3.154-0.359-3.997-0.666c-1.287-0.49-2.289-1.389-3-2.699c-0.319-0.581-0.723-1.503-1.213-2.767h-1.401
		c-0.444,1.344-0.945,2.374-1.497,3.097C18.179,12.064,15.93,13.078,12.953,13.123L12.953,13.123z M13.152,16.625v-2.87h17.456v2.87
		H13.152L13.152,16.625z M0,17.274h3.177v9.787c0,0.649,0.302,0.974,0.911,0.974h0.695V15.429H3.177
		c-0.939,0-1.657-0.256-2.146-0.78c-0.507-0.518-0.757-1.15-0.757-1.896V5.967c0-0.962,0.262-1.719,0.791-2.266
		C1.6,3.137,2.306,2.858,3.177,2.858h5.329c1.07,0,1.879,0.279,2.425,0.843c0.569,0.581,0.854,1.338,0.854,2.266v6.422
		c0,0.939-0.256,1.685-0.769,2.226c-0.535,0.547-1.178,0.814-1.924,0.814H7.857v3.826h3.712v3.109H7.857v5.671h3.826v3.109H3.177
		C1.059,31.143,0,30.067,0,27.915V17.274L0,17.274z M7.675,5.967H4.378c-0.689,0-1.031,0.342-1.031,1.025v4.412
		c0,0.655,0.342,0.985,1.031,0.985h3.297c0.643,0,0.968-0.33,0.968-0.985V6.992C8.643,6.308,8.318,5.967,7.675,5.967L7.675,5.967z
		 M37.651,17.82v-3.109h6.707v3.109H37.651L37.651,17.82z M37.651,6.377V3.268h6.707v3.109H37.651L37.651,6.377z M46.026,25.951
		v-3.075h9.622v-5.431h-9.309v-3.109h9.309V8.87h-9.622V5.762h2.198V2.784h3.137v2.978h11.586V2.784h3.183v2.978h2.306V8.87h-9.576
		v5.466h9.309v3.109h-9.309v5.431h9.576v3.075h-9.576v5.158h-3.211v-5.158H46.026L46.026,25.951z M75.107,17.82v-3.109h6.707v3.109
		H75.107L75.107,17.82z M75.107,6.343V3.234h6.707v3.109H75.107L75.107,6.343z M83.534,31.308v-3.062
		c0.33-0.034,0.54-0.132,0.632-0.296c0.032-0.058,0.103-0.421,0.102-1.088L84.251,8.164c-0.001-1.588,0.488-2.803,1.497-3.638
		c0.767-0.634,1.924-0.951,3.473-0.951h12.605c0.41,0,0.683-0.057,0.82-0.165c0.131-0.131,0.222-0.336,0.268-0.609H106
		c-0.325,2.545-1.657,3.815-4.008,3.815H89.853c-0.956,0-1.592,0.133-1.919,0.399c-0.374,0.304-0.569,0.831-0.569,1.588
		l-0.017,18.294c-0.001,1.326-0.289,2.331-0.865,3.035C85.79,30.776,84.809,31.222,83.534,31.308L83.534,31.308z M106,8.779H93.628
		c-1.418,0.011-2.391,0.211-2.909,0.598c-0.746,0.569-1.116,1.537-1.116,2.898v14.814c0,1.258,0.285,2.158,0.848,2.704
		c0.53,0.512,1.389,0.768,2.579,0.768h5.824v-3.04h-5.056c-0.438,0-0.74-0.091-0.905-0.268c-0.142-0.154-0.216-0.456-0.216-0.9
		V13.163c0-0.444,0.046-0.74,0.131-0.888c0.171-0.268,0.552-0.399,1.156-0.399H106V8.779L106,8.779z M96.082,14.029l2.938,8.99
		c0.734,2.232,1.548,3.94,2.437,5.113c1.116,1.469,2.63,2.431,4.543,2.898v-3.205c-0.9-0.273-1.634-0.808-2.203-1.594
		c-0.592-0.831-1.144-2.055-1.668-3.672l-0.951-2.926H106v-3.109h-5.824l-0.837-2.494H96.082z"/>
	<path fill-rule="evenodd" clip-rule="evenodd" fill="#2B1003" d="M27.493,27.364v1.7c0,0.712,0.224,1.287,0.681,1.719
		c0.426,0.402,1.2,0.598,2.293,0.598l3.817-0.001v-2.801l-2.66,0c-0.675,0-1.016-0.262-1.016-0.791v-0.425L27.493,27.364z"/>
	<path fill-rule="evenodd" clip-rule="evenodd" fill="#2B1003" d="M46.383,22.876h-6.525c-0.71,0-1.288,0.225-1.719,0.681
		c-0.401,0.425-0.598,1.161-0.598,2.253l0,2.729h2.801l0-1.573c0-0.675,0.262-1.016,0.791-1.016h5.249L46.383,22.876z"/>
	<path fill-rule="evenodd" clip-rule="evenodd" fill="#2B1003" d="M34.061,31.38l4.055-0.006c0.71-0.001,1.289-0.281,1.719-0.737
		c0.401-0.424,0.507-0.889,0.507-1.98l0-1.495h-2.711l0,0.339c-0.001,0.675-0.262,1.004-0.791,1.016l-2.78,0.061L34.061,31.38z"/>
	<path fill-rule="evenodd" clip-rule="evenodd" fill="#2B1003" d="M68.411,22.876l4.055,0.006c0.71,0.001,1.289,0.292,1.719,0.793
		c0.401,0.466,0.508,0.976,0.508,2.174l0,1.641h-2.711l0-0.372c-0.001-0.741-0.262-1.106-0.791-1.116l-2.779-0.053L68.411,22.876z"
		/>
	<path fill-rule="evenodd" clip-rule="evenodd" fill="#2B1003" d="M83.624,31.308l-9.441-0.006c-0.71,0-1.289-0.292-1.719-0.793
		c-0.4-0.466-0.507-0.976-0.507-2.174l0-1.641h2.711l0,0.372c0.001,0.741,0.262,1.112,0.791,1.116l8.164,0.053L83.624,31.308z"/>
</g>
</svg>
