<svg xmlns="http://www.w3.org/2000/svg" xmlns:xlink="http://www.w3.org/1999/xlink" preserveAspectRatio="xMidYMid" width="106" height="34" viewBox="0 0 106 34">
  <defs>
    <style>
      .cls-1 {
        fill: #333;
        fill-rule: evenodd;
      }
    </style>
  </defs>
  <path d="M100.000,34.000 L94.344,34.000 C91.030,34.000 88.344,31.314 88.344,28.000 L88.344,25.312 C88.344,21.999 91.030,19.313 94.344,19.313 L100.000,19.313 C103.314,19.313 106.000,21.999 106.000,25.312 L106.000,28.000 C106.000,31.314 103.314,34.000 100.000,34.000 ZM102.062,25.312 C102.062,24.208 101.167,23.313 100.063,23.313 L94.250,23.313 C93.145,23.313 92.250,24.208 92.250,25.312 L92.250,28.000 C92.250,29.105 93.145,30.000 94.250,30.000 L100.063,30.000 C101.167,30.000 102.062,29.105 102.062,28.000 L102.062,25.312 ZM103.381,13.966 L103.381,14.122 C103.587,14.048 103.805,14.000 104.036,14.000 C105.121,14.000 106.000,14.895 106.000,16.000 C106.000,17.105 105.121,18.000 104.036,18.000 C103.805,18.000 103.587,17.952 103.381,17.878 L103.381,17.966 C103.163,17.976 102.948,18.000 102.727,18.000 C100.748,18.000 98.863,17.592 97.147,16.857 C95.440,17.588 93.568,18.000 91.597,18.000 C91.376,18.000 91.160,17.977 90.942,17.967 L90.942,17.878 C90.736,17.952 90.518,18.000 90.287,18.000 C89.202,18.000 88.323,17.105 88.323,16.000 C88.323,14.895 89.202,14.000 90.287,14.000 C90.518,14.000 90.736,14.048 90.942,14.122 L90.942,13.968 C91.159,13.981 91.376,14.000 91.597,14.000 C91.998,14.000 92.391,13.969 92.780,13.924 C92.701,13.848 92.615,13.779 92.538,13.700 C91.975,13.349 91.597,12.722 91.597,12.000 C91.597,10.895 92.476,10.000 93.561,10.000 C94.129,10.000 94.637,10.249 94.995,10.642 L95.056,10.580 C95.678,11.263 96.394,11.854 97.172,12.353 C99.395,10.921 101.054,8.665 101.727,6.000 L92.251,6.000 C92.251,7.105 91.372,8.000 90.287,8.000 C89.202,8.000 88.323,7.104 88.323,6.000 L88.323,2.000 C88.323,0.895 89.202,-0.000 90.287,-0.000 C91.372,-0.000 92.251,0.895 92.251,2.000 L92.251,2.000 L104.000,2.000 C105.105,2.000 106.000,2.895 106.000,4.000 C106.000,4.188 105.966,4.367 105.917,4.539 C105.621,8.222 103.990,11.515 101.524,13.926 C101.919,13.972 102.319,14.000 102.727,14.000 C102.948,14.000 103.164,13.980 103.381,13.966 ZM84.375,18.656 C85.480,18.656 86.375,19.552 86.375,20.656 C86.375,21.761 85.480,22.656 84.375,22.656 L81.781,22.656 L81.781,32.037 C81.781,33.121 80.902,34.000 79.818,34.000 L79.807,34.000 C78.723,34.000 77.844,33.121 77.844,32.037 L77.844,13.344 L75.281,13.344 C74.177,13.344 73.281,12.448 73.281,11.344 C73.281,10.239 74.177,9.344 75.281,9.344 L77.844,9.344 L77.844,1.963 C77.844,0.879 78.723,0.000 79.807,0.000 L79.818,0.000 C80.902,0.000 81.781,0.879 81.781,1.963 L81.781,9.344 L84.375,9.344 C85.480,9.344 86.375,10.239 86.375,11.344 C86.375,12.448 85.480,13.344 84.375,13.344 L81.781,13.344 L81.781,18.656 L84.375,18.656 ZM67.161,33.658 C67.090,33.707 67.012,33.744 66.935,33.784 C66.898,33.802 66.865,33.827 66.828,33.843 C66.767,33.869 66.702,33.883 66.638,33.903 C66.579,33.921 66.521,33.946 66.459,33.959 C66.346,33.983 66.228,33.992 66.109,33.995 C66.093,33.996 66.079,34.000 66.063,34.000 C66.063,34.000 66.063,34.000 66.063,34.000 L60.171,34.000 C59.086,34.000 58.207,33.104 58.207,32.000 C58.207,30.895 59.086,30.000 60.171,30.000 C60.171,30.000 62.476,30.000 63.465,30.000 L64.099,29.312 C64.099,22.885 64.099,2.000 64.099,2.000 C64.099,0.895 64.978,-0.000 66.063,-0.000 C67.148,-0.000 68.027,0.895 68.027,2.000 L68.027,32.000 L68.027,32.000 C68.027,32.685 67.688,33.289 67.172,33.649 C67.168,33.652 67.165,33.656 67.161,33.658 ZM60.162,26.000 L60.150,26.000 C59.066,26.000 58.188,25.121 58.188,24.037 L58.188,11.307 C58.188,10.223 59.066,9.344 60.150,9.344 L60.162,9.344 C61.246,9.344 62.125,10.223 62.125,11.307 L62.125,24.037 C62.125,25.121 61.246,26.000 60.162,26.000 ZM54.250,13.344 L49.062,13.344 L49.062,32.037 C49.062,33.121 48.184,34.000 47.100,34.000 L47.088,34.000 C46.004,34.000 45.125,33.121 45.125,32.037 L45.125,13.344 L39.906,13.344 C38.802,13.344 37.906,12.448 37.906,11.344 C37.906,10.239 38.802,9.344 39.906,9.344 L45.125,9.344 L45.125,5.333 L42.494,5.333 C41.409,5.333 40.530,4.438 40.530,3.333 C40.530,2.229 41.409,1.333 42.494,1.333 L47.735,1.333 C47.805,1.305 47.871,1.273 47.945,1.252 L51.739,0.217 C52.787,-0.069 53.864,0.564 54.145,1.631 C54.426,2.698 53.804,3.795 52.756,4.081 L49.041,5.094 C49.049,5.165 49.062,5.234 49.062,5.307 L49.062,9.344 L54.250,9.344 C55.355,9.344 56.250,10.239 56.250,11.344 C56.250,12.448 55.355,13.344 54.250,13.344 ZM32.687,32.000 C32.687,33.105 31.806,34.000 30.719,34.000 C29.713,34.000 28.893,33.232 28.774,32.243 L28.447,32.340 C27.672,29.270 25.405,26.815 22.479,25.820 C20.891,29.665 17.589,32.593 13.540,33.604 C13.213,33.850 12.813,34.000 12.375,34.000 C11.288,34.000 10.406,33.105 10.406,32.000 C10.406,30.895 11.288,30.000 12.375,30.000 C12.498,30.000 12.617,30.015 12.734,30.037 L12.727,29.688 C15.129,29.051 17.144,27.448 18.355,25.312 L12.406,25.312 C11.302,25.312 10.406,24.417 10.406,23.313 C10.406,22.208 11.302,21.313 12.406,21.313 L19.553,21.313 C19.567,21.099 19.580,20.884 19.580,20.667 L19.594,20.667 L19.594,20.000 L16.406,20.000 C13.093,20.000 10.406,17.314 10.406,14.000 L10.406,11.344 C10.406,8.030 13.093,5.344 16.406,5.344 L19.594,5.344 L19.594,4.000 L12.406,4.000 C11.302,4.000 10.406,3.105 10.406,2.000 C10.406,0.895 11.302,0.000 12.406,0.000 L30.688,0.000 C31.792,0.000 32.687,0.895 32.687,2.000 C32.687,3.105 31.792,4.000 30.688,4.000 L23.500,4.000 L23.500,5.344 L26.688,5.344 C30.001,5.344 32.687,8.030 32.687,11.344 L32.687,14.000 C32.687,17.314 30.001,20.000 26.688,20.000 L23.500,20.000 L23.500,20.667 L23.508,20.667 C23.508,21.100 23.484,21.528 23.445,21.951 C27.479,23.222 30.678,26.415 31.999,30.492 C32.417,30.859 32.687,31.395 32.687,32.000 ZM19.594,14.688 L17.656,14.688 C16.552,14.688 15.656,13.792 15.656,12.687 C15.656,11.583 16.552,10.687 17.656,10.687 L19.594,10.687 L19.594,9.344 L16.344,9.344 C15.239,9.344 14.344,10.239 14.344,11.344 L14.344,14.000 C14.344,15.105 15.239,16.000 16.344,16.000 L19.594,16.000 L19.594,14.688 ZM23.500,10.687 L25.438,10.687 C26.542,10.687 27.437,11.583 27.437,12.687 C27.437,13.792 26.542,14.688 25.438,14.688 L23.500,14.688 L23.500,16.000 L26.750,16.000 C27.855,16.000 28.750,15.105 28.750,14.000 L28.750,11.344 C28.750,10.239 27.855,9.344 26.750,9.344 L23.500,9.344 L23.500,10.687 ZM6.475,34.000 L6.463,34.000 C5.379,34.000 4.500,33.121 4.500,32.037 L4.500,5.755 L2.949,6.667 C2.010,7.219 0.808,6.891 0.266,5.935 C-0.276,4.978 0.045,3.755 0.985,3.202 L4.777,0.973 C5.118,0.393 5.742,0.000 6.463,0.000 L6.475,0.000 C7.553,0.000 8.427,0.870 8.436,1.947 C8.469,2.151 8.467,2.356 8.438,2.557 L8.438,32.037 C8.438,33.121 7.559,34.000 6.475,34.000 ZM39.716,23.472 C39.754,23.326 39.809,23.191 39.875,23.063 L39.875,16.650 C39.875,15.566 40.754,14.688 41.838,14.688 L41.850,14.688 C42.934,14.688 43.812,15.566 43.812,16.650 L43.812,24.037 C43.812,24.553 43.609,25.020 43.283,25.370 L42.493,28.371 C42.213,29.437 41.136,30.071 40.088,29.785 C39.040,29.499 38.418,28.402 38.699,27.335 L39.716,23.472 ZM52.307,14.688 L52.318,14.688 C53.402,14.688 54.281,15.566 54.281,16.650 L54.281,28.037 C54.281,29.121 53.402,30.000 52.318,30.000 L52.307,30.000 C51.223,30.000 50.344,29.121 50.344,28.037 L50.344,16.650 C50.344,15.566 51.223,14.688 52.307,14.688 ZM75.234,14.688 C76.313,14.688 77.187,15.562 77.187,16.641 L77.187,28.047 C77.187,29.126 76.313,30.000 75.234,30.000 C74.156,30.000 73.281,29.126 73.281,28.047 L73.281,16.641 C73.281,15.562 74.156,14.688 75.234,14.688 Z" class="cls-1"/>
</svg>
